<svg id="visual" viewBox="0 0 900 600" width="900" height="600" xmlns="http://www.w3.org/2000/svg" xmlns:xlink="http://www.w3.org/1999/xlink" version="1.1"><rect x="0" y="0" width="900" height="600" fill="#fff"></rect><path d="M0 426L7.8 422C15.7 418 31.3 410 47.2 397.3C63 384.7 79 367.3 94.8 361.7C110.7 356 126.3 362 142 366.2C157.7 370.3 173.3 372.7 189.2 377.3C205 382 221 389 236.8 395.3C252.7 401.7 268.3 407.3 284.2 400C300 392.7 316 372.3 331.8 375.5C347.7 378.7 363.3 405.3 379 415.5C394.7 425.7 410.3 419.3 426.2 408.7C442 398 458 383 473.8 378.8C489.7 374.7 505.3 381.3 521 377.8C536.7 374.3 552.3 360.7 568.2 364.8C584 369 600 391 615.8 396.8C631.7 402.7 647.3 392.3 663.2 393C679 393.7 695 405.3 710.8 408.7C726.7 412 742.3 407 758 398.7C773.7 390.3 789.3 378.7 805.2 375.3C821 372 837 377 852.8 377C868.7 377 884.3 372 892.2 369.5L900 367L900 601L892.2 601C884.3 601 868.7 601 852.8 601C837 601 821 601 805.2 601C789.3 601 773.7 601 758 601C742.3 601 726.7 601 710.8 601C695 601 679 601 663.2 601C647.3 601 631.7 601 615.8 601C600 601 584 601 568.2 601C552.3 601 536.7 601 521 601C505.3 601 489.7 601 473.8 601C458 601 442 601 426.2 601C410.3 601 394.7 601 379 601C363.3 601 347.7 601 331.8 601C316 601 300 601 284.2 601C268.3 601 252.7 601 236.8 601C221 601 205 601 189.2 601C173.3 601 157.7 601 142 601C126.3 601 110.7 601 94.8 601C79 601 63 601 47.2 601C31.3 601 15.7 601 7.8 601L0 601Z" fill="#fcaf3c"></path><path d="M0 368L7.8 381.5C15.7 395 31.3 422 47.2 424.8C63 427.7 79 406.3 94.8 397.2C110.7 388 126.3 391 142 387.7C157.7 384.3 173.3 374.7 189.2 384.2C205 393.7 221 422.3 236.8 423.8C252.7 425.3 268.3 399.7 284.2 394.5C300 389.3 316 404.7 331.8 406.3C347.7 408 363.3 396 379 399C394.7 402 410.3 420 426.2 428.2C442 436.3 458 434.7 473.8 430.3C489.7 426 505.3 419 521 414.2C536.7 409.3 552.3 406.7 568.2 399.8C584 393 600 382 615.8 383C631.7 384 647.3 397 663.2 398.3C679 399.7 695 389.3 710.8 396.3C726.7 403.3 742.3 427.7 758 430.8C773.7 434 789.3 416 805.2 407.7C821 399.3 837 400.7 852.8 403C868.7 405.3 884.3 408.7 892.2 410.3L900 412L900 601L892.2 601C884.3 601 868.7 601 852.8 601C837 601 821 601 805.2 601C789.3 601 773.7 601 758 601C742.3 601 726.7 601 710.8 601C695 601 679 601 663.2 601C647.3 601 631.7 601 615.8 601C600 601 584 601 568.2 601C552.3 601 536.7 601 521 601C505.3 601 489.7 601 473.8 601C458 601 442 601 426.2 601C410.3 601 394.7 601 379 601C363.3 601 347.7 601 331.8 601C316 601 300 601 284.2 601C268.3 601 252.7 601 236.8 601C221 601 205 601 189.2 601C173.3 601 157.7 601 142 601C126.3 601 110.7 601 94.8 601C79 601 63 601 47.2 601C31.3 601 15.7 601 7.8 601L0 601Z" fill="#fca936"></path><path d="M0 412L7.8 415.5C15.7 419 31.3 426 47.2 432.7C63 439.3 79 445.7 94.8 446.2C110.7 446.7 126.3 441.3 142 443.7C157.7 446 173.3 456 189.2 460.3C205 464.7 221 463.3 236.8 456C252.7 448.7 268.3 435.3 284.2 432C300 428.7 316 435.3 331.8 429.2C347.7 423 363.3 404 379 399.7C394.7 395.3 410.3 405.7 426.2 418.5C442 431.3 458 446.7 473.8 441.8C489.7 437 505.3 412 521 413.3C536.7 414.7 552.3 442.3 568.2 451.7C584 461 600 452 615.8 447.5C631.7 443 647.3 443 663.2 436C679 429 695 415 710.8 408C726.7 401 742.3 401 758 412.3C773.7 423.7 789.3 446.3 805.2 444C821 441.7 837 414.3 852.8 412.5C868.7 410.7 884.3 434.3 892.2 446.2L900 458L900 601L892.2 601C884.3 601 868.7 601 852.8 601C837 601 821 601 805.2 601C789.3 601 773.7 601 758 601C742.3 601 726.7 601 710.8 601C695 601 679 601 663.2 601C647.3 601 631.7 601 615.8 601C600 601 584 601 568.2 601C552.3 601 536.7 601 521 601C505.3 601 489.7 601 473.8 601C458 601 442 601 426.2 601C410.3 601 394.7 601 379 601C363.3 601 347.7 601 331.8 601C316 601 300 601 284.2 601C268.3 601 252.7 601 236.8 601C221 601 205 601 189.2 601C173.3 601 157.7 601 142 601C126.3 601 110.7 601 94.8 601C79 601 63 601 47.2 601C31.3 601 15.7 601 7.8 601L0 601Z" fill="#fba331"></path><path d="M0 482L7.8 476.5C15.7 471 31.3 460 47.2 459.8C63 459.7 79 470.3 94.8 464.7C110.7 459 126.3 437 142 428.8C157.7 420.7 173.3 426.3 189.2 431.7C205 437 221 442 236.8 445.7C252.7 449.3 268.3 451.7 284.2 457.5C300 463.3 316 472.7 331.8 476.7C347.7 480.7 363.3 479.3 379 470.7C394.7 462 410.3 446 426.2 446.8C442 447.7 458 465.3 473.8 464.7C489.7 464 505.3 445 521 435.5C536.7 426 552.3 426 568.2 425.3C584 424.7 600 423.3 615.8 431.8C631.7 440.3 647.3 458.7 663.2 465.2C679 471.7 695 466.3 710.8 460.8C726.7 455.3 742.3 449.7 758 447.3C773.7 445 789.3 446 805.2 452.7C821 459.3 837 471.7 852.8 468.3C868.7 465 884.3 446 892.2 436.5L900 427L900 601L892.2 601C884.3 601 868.7 601 852.8 601C837 601 821 601 805.2 601C789.3 601 773.7 601 758 601C742.3 601 726.7 601 710.8 601C695 601 679 601 663.2 601C647.3 601 631.7 601 615.8 601C600 601 584 601 568.2 601C552.3 601 536.7 601 521 601C505.3 601 489.7 601 473.8 601C458 601 442 601 426.2 601C410.3 601 394.7 601 379 601C363.3 601 347.7 601 331.8 601C316 601 300 601 284.2 601C268.3 601 252.7 601 236.8 601C221 601 205 601 189.2 601C173.3 601 157.7 601 142 601C126.3 601 110.7 601 94.8 601C79 601 63 601 47.2 601C31.3 601 15.7 601 7.8 601L0 601Z" fill="#fb9d2c"></path><path d="M0 501L7.8 499.2C15.7 497.3 31.3 493.7 47.2 493.8C63 494 79 498 94.8 490C110.7 482 126.3 462 142 461.8C157.7 461.7 173.3 481.3 189.2 491.5C205 501.7 221 502.3 236.8 492.5C252.7 482.7 268.3 462.3 284.2 462.2C300 462 316 482 331.8 482.8C347.7 483.7 363.3 465.3 379 463C394.7 460.7 410.3 474.3 426.2 475.7C442 477 458 466 473.8 457.7C489.7 449.3 505.3 443.7 521 444.2C536.7 444.7 552.3 451.3 568.2 459.2C584 467 600 476 615.8 478.2C631.7 480.3 647.3 475.7 663.2 477.5C679 479.3 695 487.7 710.8 484.8C726.7 482 742.3 468 758 466.2C773.7 464.3 789.3 474.7 805.2 481.5C821 488.3 837 491.7 852.8 486.8C868.7 482 884.3 469 892.2 462.5L900 456L900 601L892.2 601C884.3 601 868.7 601 852.8 601C837 601 821 601 805.2 601C789.3 601 773.7 601 758 601C742.3 601 726.7 601 710.8 601C695 601 679 601 663.2 601C647.3 601 631.7 601 615.8 601C600 601 584 601 568.2 601C552.3 601 536.7 601 521 601C505.3 601 489.7 601 473.8 601C458 601 442 601 426.2 601C410.3 601 394.7 601 379 601C363.3 601 347.7 601 331.8 601C316 601 300 601 284.2 601C268.3 601 252.7 601 236.8 601C221 601 205 601 189.2 601C173.3 601 157.7 601 142 601C126.3 601 110.7 601 94.8 601C79 601 63 601 47.2 601C31.3 601 15.7 601 7.8 601L0 601Z" fill="#fa9726"></path><path d="M0 466L7.8 474.2C15.7 482.3 31.3 498.7 47.2 503C63 507.3 79 499.7 94.8 496.2C110.7 492.7 126.3 493.3 142 487.8C157.7 482.3 173.3 470.7 189.2 473.2C205 475.7 221 492.3 236.8 495C252.7 497.7 268.3 486.3 284.2 487.8C300 489.3 316 503.7 331.8 510.5C347.7 517.3 363.3 516.7 379 513.8C394.7 511 410.3 506 426.2 506.5C442 507 458 513 473.8 509C489.7 505 505.3 491 521 490.8C536.7 490.7 552.3 504.3 568.2 508C584 511.7 600 505.3 615.8 504.5C631.7 503.7 647.3 508.3 663.2 509C679 509.7 695 506.3 710.8 504.3C726.7 502.3 742.3 501.7 758 499.3C773.7 497 789.3 493 805.2 490.3C821 487.7 837 486.3 852.8 487C868.7 487.7 884.3 490.3 892.2 491.7L900 493L900 601L892.2 601C884.3 601 868.7 601 852.8 601C837 601 821 601 805.2 601C789.3 601 773.7 601 758 601C742.3 601 726.7 601 710.8 601C695 601 679 601 663.2 601C647.3 601 631.7 601 615.8 601C600 601 584 601 568.2 601C552.3 601 536.7 601 521 601C505.3 601 489.7 601 473.8 601C458 601 442 601 426.2 601C410.3 601 394.7 601 379 601C363.3 601 347.7 601 331.8 601C316 601 300 601 284.2 601C268.3 601 252.7 601 236.8 601C221 601 205 601 189.2 601C173.3 601 157.7 601 142 601C126.3 601 110.7 601 94.8 601C79 601 63 601 47.2 601C31.3 601 15.7 601 7.8 601L0 601Z" fill="#fa9121"></path><path d="M0 496L7.8 495.3C15.7 494.7 31.3 493.3 47.2 495.8C63 498.3 79 504.7 94.8 504.8C110.7 505 126.3 499 142 499.7C157.7 500.3 173.3 507.7 189.2 509.3C205 511 221 507 236.8 507.8C252.7 508.7 268.3 514.3 284.2 513.3C300 512.3 316 504.7 331.8 500.8C347.7 497 363.3 497 379 497.2C394.7 497.3 410.3 497.7 426.2 501C442 504.3 458 510.7 473.8 513.8C489.7 517 505.3 517 521 516.5C536.7 516 552.3 515 568.2 509.3C584 503.7 600 493.3 615.8 495.5C631.7 497.7 647.3 512.3 663.2 517.8C679 523.3 695 519.7 710.8 520.5C726.7 521.3 742.3 526.7 758 526C773.7 525.3 789.3 518.7 805.2 514.3C821 510 837 508 852.8 511.2C868.7 514.3 884.3 522.7 892.2 526.8L900 531L900 601L892.2 601C884.3 601 868.7 601 852.8 601C837 601 821 601 805.2 601C789.3 601 773.7 601 758 601C742.3 601 726.7 601 710.8 601C695 601 679 601 663.2 601C647.3 601 631.7 601 615.8 601C600 601 584 601 568.2 601C552.3 601 536.7 601 521 601C505.3 601 489.7 601 473.8 601C458 601 442 601 426.2 601C410.3 601 394.7 601 379 601C363.3 601 347.7 601 331.8 601C316 601 300 601 284.2 601C268.3 601 252.7 601 236.8 601C221 601 205 601 189.2 601C173.3 601 157.7 601 142 601C126.3 601 110.7 601 94.8 601C79 601 63 601 47.2 601C31.3 601 15.7 601 7.8 601L0 601Z" fill="#f98b1d"></path><path d="M0 548L7.8 546.2C15.7 544.3 31.3 540.7 47.2 535.3C63 530 79 523 94.8 525.2C110.7 527.3 126.3 538.7 142 539C157.7 539.3 173.3 528.7 189.2 523C205 517.3 221 516.7 236.8 521.2C252.7 525.7 268.3 535.3 284.2 535.8C300 536.3 316 527.7 331.8 522.7C347.7 517.7 363.3 516.3 379 518.7C394.7 521 410.3 527 426.2 528.5C442 530 458 527 473.8 528C489.7 529 505.3 534 521 534C536.7 534 552.3 529 568.2 525.3C584 521.7 600 519.3 615.8 524C631.7 528.7 647.3 540.3 663.2 545.8C679 551.3 695 550.7 710.8 549.3C726.7 548 742.3 546 758 540.3C773.7 534.7 789.3 525.3 805.2 519.7C821 514 837 512 852.8 512.5C868.7 513 884.3 516 892.2 517.5L900 519L900 601L892.2 601C884.3 601 868.7 601 852.8 601C837 601 821 601 805.2 601C789.3 601 773.7 601 758 601C742.3 601 726.7 601 710.8 601C695 601 679 601 663.2 601C647.3 601 631.7 601 615.8 601C600 601 584 601 568.2 601C552.3 601 536.7 601 521 601C505.3 601 489.7 601 473.8 601C458 601 442 601 426.2 601C410.3 601 394.7 601 379 601C363.3 601 347.7 601 331.8 601C316 601 300 601 284.2 601C268.3 601 252.7 601 236.8 601C221 601 205 601 189.2 601C173.3 601 157.7 601 142 601C126.3 601 110.7 601 94.8 601C79 601 63 601 47.2 601C31.3 601 15.7 601 7.8 601L0 601Z" fill="#f88418"></path><path d="M0 556L7.8 554.8C15.7 553.7 31.3 551.3 47.2 550.2C63 549 79 549 94.8 551C110.7 553 126.3 557 142 554.3C157.7 551.7 173.3 542.3 189.2 541.8C205 541.3 221 549.7 236.8 553C252.7 556.3 268.3 554.7 284.2 556.7C300 558.7 316 564.3 331.8 564.8C347.7 565.3 363.3 560.7 379 561C394.7 561.3 410.3 566.7 426.2 567C442 567.3 458 562.7 473.8 561.3C489.7 560 505.3 562 521 562.5C536.7 563 552.3 562 568.2 563.3C584 564.7 600 568.3 615.8 566.3C631.7 564.3 647.3 556.7 663.2 552.5C679 548.3 695 547.7 710.8 548.2C726.7 548.7 742.3 550.3 758 551.3C773.7 552.3 789.3 552.7 805.2 550C821 547.3 837 541.7 852.8 541C868.7 540.3 884.3 544.7 892.2 546.8L900 549L900 601L892.2 601C884.3 601 868.7 601 852.8 601C837 601 821 601 805.2 601C789.3 601 773.7 601 758 601C742.3 601 726.7 601 710.8 601C695 601 679 601 663.2 601C647.3 601 631.7 601 615.8 601C600 601 584 601 568.2 601C552.3 601 536.7 601 521 601C505.3 601 489.7 601 473.8 601C458 601 442 601 426.2 601C410.3 601 394.7 601 379 601C363.3 601 347.7 601 331.8 601C316 601 300 601 284.2 601C268.3 601 252.7 601 236.8 601C221 601 205 601 189.2 601C173.3 601 157.7 601 142 601C126.3 601 110.7 601 94.8 601C79 601 63 601 47.2 601C31.3 601 15.7 601 7.8 601L0 601Z" fill="#f87e13"></path><path d="M0 585L7.8 581.3C15.7 577.7 31.3 570.3 47.2 570C63 569.7 79 576.3 94.8 575.2C110.7 574 126.3 565 142 563.5C157.7 562 173.3 568 189.2 569.8C205 571.7 221 569.3 236.8 567.8C252.7 566.3 268.3 565.7 284.2 567.2C300 568.7 316 572.3 331.8 575.5C347.7 578.7 363.3 581.3 379 582.2C394.7 583 410.3 582 426.2 578.8C442 575.7 458 570.3 473.8 566.5C489.7 562.7 505.3 560.3 521 562.8C536.7 565.3 552.3 572.7 568.2 572.3C584 572 600 564 615.8 561.7C631.7 559.3 647.3 562.7 663.2 563.7C679 564.7 695 563.3 710.8 562.3C726.7 561.3 742.3 560.7 758 564.2C773.7 567.7 789.3 575.3 805.2 578.8C821 582.3 837 581.7 852.8 581.5C868.7 581.3 884.3 581.7 892.2 581.8L900 582L900 601L892.2 601C884.3 601 868.7 601 852.8 601C837 601 821 601 805.2 601C789.3 601 773.7 601 758 601C742.3 601 726.7 601 710.8 601C695 601 679 601 663.2 601C647.3 601 631.7 601 615.8 601C600 601 584 601 568.2 601C552.3 601 536.7 601 521 601C505.3 601 489.7 601 473.8 601C458 601 442 601 426.2 601C410.3 601 394.7 601 379 601C363.3 601 347.7 601 331.8 601C316 601 300 601 284.2 601C268.3 601 252.7 601 236.8 601C221 601 205 601 189.2 601C173.3 601 157.7 601 142 601C126.3 601 110.7 601 94.8 601C79 601 63 601 47.2 601C31.3 601 15.7 601 7.8 601L0 601Z" fill="#f7770f"></path></svg>